HIERARCHY
ROOT Hips
{
	OFFSET 8.032422 87.359642 6.916457
	CHANNELS 6 Xposition Yposition Zposition Zrotation Yrotation Xrotation 
	JOINT Spine
	{
		OFFSET -0.000000 8.814246 -2.080107
		CHANNELS 3 Zrotation Yrotation Xrotation
		JOINT Spine1
		{
			OFFSET -0.000000 8.844141 0.000000
			CHANNELS 3 Zrotation Yrotation Xrotation
			JOINT Spine2
			{
				OFFSET 0.000000 11.682268 0.000000
				CHANNELS 3 Zrotation Yrotation Xrotation
				JOINT Spine3
				{
					OFFSET 0.000000 11.746700 0.000000
					CHANNELS 3 Zrotation Yrotation Xrotation
					JOINT Neck
					{
						OFFSET -0.000000 17.658264 -0.000000
						CHANNELS 3 Zrotation Yrotation Xrotation
						JOINT Neck1
						{
							OFFSET 0.000000 5.101515 0.000000
							CHANNELS 3 Zrotation Yrotation Xrotation
							JOINT Head
							{
								OFFSET 0.000000 5.101515 0.000000
								CHANNELS 3 Zrotation Yrotation Xrotation
								JOINT HeadEnd
								{
									OFFSET 0.000000 11.655085 -0.000000
									CHANNELS 3 Zrotation Yrotation Xrotation
									End Site
									{
										OFFSET 0.000000 0.000000 0.000000
									}
								}
							}
						}
					}
					JOINT RightShoulder
					{
						OFFSET -2.625389 11.175210 -0.000000
						CHANNELS 3 Zrotation Yrotation Xrotation
						JOINT RightArm
						{
							OFFSET -0.000000 10.434715 -0.000000
							CHANNELS 3 Zrotation Yrotation Xrotation
							JOINT RightForeArm
							{
								OFFSET 0.000000 29.628420 0.000000
								CHANNELS 3 Zrotation Yrotation Xrotation
								JOINT RightHand
								{
									OFFSET -0.000000 22.857611 -0.000000
									CHANNELS 3 Zrotation Yrotation Xrotation
									JOINT RightHandThumb1
									{
										OFFSET -2.867323 3.959563 2.944291
										CHANNELS 3 Zrotation Yrotation Xrotation
										JOINT RightHandThumb2
										{
											OFFSET 0.000000 3.350399 0.000000
											CHANNELS 3 Zrotation Yrotation Xrotation
											JOINT RightHandThumb3
											{
												OFFSET 0.000000 3.756509 -0.000000
												CHANNELS 3 Zrotation Yrotation Xrotation
												JOINT RightHandThumb4
												{
													OFFSET 0.000000 3.147345 0.000000
													CHANNELS 3 Zrotation Yrotation Xrotation
													End Site
													{
														OFFSET 0.000000 0.000000 0.000000
													}
												}
											}
										}
									}
									JOINT RightHandIndex1
									{
										OFFSET -0.086752 10.030893 2.345280
										CHANNELS 3 Zrotation Yrotation Xrotation
										JOINT RightHandIndex2
										{
											OFFSET 0.000000 4.061090 0.000000
											CHANNELS 3 Zrotation Yrotation Xrotation
											JOINT RightHandIndex3
											{
												OFFSET 0.000000 3.248873 0.000000
												CHANNELS 3 Zrotation Yrotation Xrotation
												JOINT RightHandIndex4
												{
													OFFSET 0.000000 2.639709 0.000000
													CHANNELS 3 Zrotation Yrotation Xrotation
													End Site
													{
														OFFSET 0.000000 0.000000 0.000000
													}
												}
											}
										}
									}
									JOINT RightHandMiddle1
									{
										OFFSET 0.104102 9.502952 0.006768
										CHANNELS 3 Zrotation Yrotation Xrotation
										JOINT RightHandMiddle2
										{
											OFFSET 0.000000 4.568727 0.000000
											CHANNELS 3 Zrotation Yrotation Xrotation
											JOINT RightHandMiddle3
											{
												OFFSET -0.000000 3.654981 -0.000000
												CHANNELS 3 Zrotation Yrotation Xrotation
												JOINT RightHandMiddle4
												{
													OFFSET 0.000000 2.741236 0.000000
													CHANNELS 3 Zrotation Yrotation Xrotation
													End Site
													{
														OFFSET 0.000000 0.000000 0.000000
													}
												}
											}
										}
									}
									JOINT RightHandRing1
									{
										OFFSET 0.086752 8.921708 -2.267442
										CHANNELS 3 Zrotation Yrotation Xrotation
										JOINT RightHandRing2
										{
											OFFSET -0.000000 4.061090 0.000000
											CHANNELS 3 Zrotation Yrotation Xrotation
											JOINT RightHandRing3
											{
												OFFSET -0.000000 3.654981 -0.000000
												CHANNELS 3 Zrotation Yrotation Xrotation
												JOINT RightHandRing4
												{
													OFFSET 0.000000 2.741236 0.000000
													CHANNELS 3 Zrotation Yrotation Xrotation
													End Site
													{
														OFFSET 0.000000 0.000000 0.000000
													}
												}
											}
										}
									}
									JOINT RightHandPinky1
									{
										OFFSET -0.173504 7.976997 -4.467199
										CHANNELS 3 Zrotation Yrotation Xrotation
										JOINT RightHandPinky2
										{
											OFFSET 0.000000 3.350399 0.000000
											CHANNELS 3 Zrotation Yrotation Xrotation
											JOINT RightHandPinky3
											{
												OFFSET 0.000000 2.842763 0.000000
												CHANNELS 3 Zrotation Yrotation Xrotation
												JOINT RightHandPinky4
												{
													OFFSET 0.000000 2.639709 0.000000
													CHANNELS 3 Zrotation Yrotation Xrotation
													End Site
													{
														OFFSET 0.000000 0.000000 0.000000
													}
												}
											}
										}
									}
									JOINT RightForeArmEnd
									{
										OFFSET 0.000000 0.000000 0.000000
										CHANNELS 3 Zrotation Yrotation Xrotation
										End Site
										{
											OFFSET 0.000000 0.000000 0.000000
										}
									}
								}
								JOINT RightArmEnd
								{
									OFFSET 0.000000 0.000000 0.000000
									CHANNELS 3 Zrotation Yrotation Xrotation
									End Site
									{
										OFFSET 0.000000 0.000000 0.000000
									}
								}
							}
						}
					}
					JOINT LeftShoulder
					{
						OFFSET 2.625389 11.175210 -0.000000
						CHANNELS 3 Zrotation Yrotation Xrotation
						JOINT LeftArm
						{
							OFFSET 0.000000 10.813635 0.000000
							CHANNELS 3 Zrotation Yrotation Xrotation
							JOINT LeftForeArm
							{
								OFFSET 0.000000 28.724781 -0.000000
								CHANNELS 3 Zrotation Yrotation Xrotation
								JOINT LeftHand
								{
									OFFSET 0.644384 25.716167 -0.328871
									CHANNELS 3 Zrotation Yrotation Xrotation
									JOINT LeftHandThumb1
									{
										OFFSET 2.867323 3.959563 2.944291
										CHANNELS 3 Zrotation Yrotation Xrotation
										JOINT LeftHandThumb2
										{
											OFFSET -0.000000 3.350399 -0.000000
											CHANNELS 3 Zrotation Yrotation Xrotation
											JOINT LeftHandThumb3
											{
												OFFSET 0.000000 3.756509 -0.000000
												CHANNELS 3 Zrotation Yrotation Xrotation
												JOINT LeftHandThumb4
												{
													OFFSET 0.000000 3.100000 -0.000000
													CHANNELS 3 Zrotation Yrotation Xrotation
													End Site
													{
														OFFSET 0.000000 0.000000 0.000000
													}
												}
											}
										}
									}
									JOINT LeftHandIndex1
									{
										OFFSET 0.086752 10.030893 2.345280
										CHANNELS 3 Zrotation Yrotation Xrotation
										JOINT LeftHandIndex2
										{
											OFFSET -0.000000 4.061090 0.000000
											CHANNELS 3 Zrotation Yrotation Xrotation
											JOINT LeftHandIndex3
											{
												OFFSET -0.000000 3.248873 0.000000
												CHANNELS 3 Zrotation Yrotation Xrotation
												JOINT LeftHandIndex4
												{
													OFFSET 0.000000 2.639709 -0.000000
													CHANNELS 3 Zrotation Yrotation Xrotation
													End Site
													{
														OFFSET 0.000000 0.000000 0.000000
													}
												}
											}
										}
									}
									JOINT LeftHandMiddle1
									{
										OFFSET -0.104102 9.502952 0.006768
										CHANNELS 3 Zrotation Yrotation Xrotation
										JOINT LeftHandMiddle2
										{
											OFFSET -0.000000 4.568727 0.000000
											CHANNELS 3 Zrotation Yrotation Xrotation
											JOINT LeftHandMiddle3
											{
												OFFSET 0.000000 3.654981 -0.000000
												CHANNELS 3 Zrotation Yrotation Xrotation
												JOINT LeftHandMiddle4
												{
													OFFSET -0.000000 2.741236 0.000000
													CHANNELS 3 Zrotation Yrotation Xrotation
													End Site
													{
														OFFSET 0.000000 0.000000 0.000000
													}
												}
											}
										}
									}
									JOINT LeftHandRing1
									{
										OFFSET -0.086752 8.921708 -2.267442
										CHANNELS 3 Zrotation Yrotation Xrotation
										JOINT LeftHandRing2
										{
											OFFSET -0.000000 4.061090 0.000000
											CHANNELS 3 Zrotation Yrotation Xrotation
											JOINT LeftHandRing3
											{
												OFFSET 0.000000 3.654981 -0.000000
												CHANNELS 3 Zrotation Yrotation Xrotation
												JOINT LeftHandRing4
												{
													OFFSET 0.000000 2.741236 -0.000000
													CHANNELS 3 Zrotation Yrotation Xrotation
													End Site
													{
														OFFSET 0.000000 0.000000 0.000000
													}
												}
											}
										}
									}
									JOINT LeftHandPinky1
									{
										OFFSET 0.173504 7.976997 -4.467199
										CHANNELS 3 Zrotation Yrotation Xrotation
										JOINT LeftHandPinky2
										{
											OFFSET 0.000000 3.350399 0.000000
											CHANNELS 3 Zrotation Yrotation Xrotation
											JOINT LeftHandPinky3
											{
												OFFSET -0.000000 2.842763 0.000000
												CHANNELS 3 Zrotation Yrotation Xrotation
												JOINT LeftHandPinky4
												{
													OFFSET 0.000000 2.639709 -0.000000
													CHANNELS 3 Zrotation Yrotation Xrotation
													End Site
													{
														OFFSET 0.000000 0.000000 0.000000
													}
												}
											}
										}
									}
									JOINT LeftForeArmEnd
									{
										OFFSET 0.000000 0.000000 0.000000
										CHANNELS 3 Zrotation Yrotation Xrotation
										End Site
										{
											OFFSET 0.000000 0.000000 0.000000
										}
									}
								}
								JOINT LeftArmEnd
								{
									OFFSET 0.000000 0.000000 0.000000
									CHANNELS 3 Zrotation Yrotation Xrotation
									End Site
									{
										OFFSET 0.000000 0.000000 0.000000
									}
								}
							}
						}
					}
				}
			}
		}
	}
	JOINT RightUpLeg
	{
		OFFSET -11.289943 0.000000 -0.000000
		CHANNELS 3 Zrotation Yrotation Xrotation
		JOINT RightLeg
		{
			OFFSET 0.000000 -38.200325 0.000000
			CHANNELS 3 Zrotation Yrotation Xrotation
			JOINT RightFoot
			{
				OFFSET -0.000000 -39.900856 0.000000
				CHANNELS 3 Zrotation Yrotation Xrotation
				JOINT RightToeBase
				{
					OFFSET -0.000000 -0.000000 15.261641
					CHANNELS 3 Zrotation Yrotation Xrotation
					JOINT RightToeBaseEnd
					{
						OFFSET -0.000000 0.000000 7.370709
						CHANNELS 3 Zrotation Yrotation Xrotation
						End Site
						{
							OFFSET 0.000000 0.000000 0.000000
						}
					}
				}
				JOINT RightLegEnd
				{
					OFFSET 0.000000 0.000000 0.000000
					CHANNELS 3 Zrotation Yrotation Xrotation
					End Site
					{
						OFFSET 0.000000 0.000000 0.000000
					}
				}
			}
			JOINT RightUpLegEnd
			{
				OFFSET 0.000000 0.000000 0.000000
				CHANNELS 3 Zrotation Yrotation Xrotation
				End Site
				{
					OFFSET 0.000000 0.000000 0.000000
				}
			}
		}
	}
	JOINT LeftUpLeg
	{
		OFFSET 11.315661 0.000000 -0.000000
		CHANNELS 3 Zrotation Yrotation Xrotation
		JOINT LeftLeg
		{
			OFFSET -0.000000 -38.200325 0.000000
			CHANNELS 3 Zrotation Yrotation Xrotation
			JOINT LeftFoot
			{
				OFFSET 0.000000 -39.900856 0.000000
				CHANNELS 3 Zrotation Yrotation Xrotation
				JOINT LeftToeBase
				{
					OFFSET -0.000000 -0.000000 15.261641
					CHANNELS 3 Zrotation Yrotation Xrotation
					JOINT LeftToeBaseEnd
					{
						OFFSET 0.000000 -0.000000 7.539996
						CHANNELS 3 Zrotation Yrotation Xrotation
						End Site
						{
							OFFSET 0.000000 0.000000 0.000000
						}
					}
				}
				JOINT LeftLegEnd
				{
					OFFSET 0.000000 0.000000 0.000000
					CHANNELS 3 Zrotation Yrotation Xrotation
					End Site
					{
						OFFSET 0.000000 0.000000 0.000000
					}
				}
			}
			JOINT LeftUpLegEnd
			{
				OFFSET 0.000000 0.000000 0.000000
				CHANNELS 3 Zrotation Yrotation Xrotation
				End Site
				{
					OFFSET 0.000000 0.000000 0.000000
				}
			}
		}
	}
}
MOTION
Frames: 5
Frame Time: 0.016667
8.032422 87.359642 6.916457 1.285674 0.446686 -20.587395 0.606840 -0.101559 10.088569 0.565843 0.217960 0.654387 -4.933913 3.064002 16.486954 -5.026132 0.896215 7.578250 -15.986867 3.343997 11.642360 -1.649496 -0.905224 0.450533 -0.947443 -1.677701 -17.145180 0.000000 0.000000 0.000000 94.393456 -1.198589 15.672978 51.726395 -41.347210 23.564291 0.112386 11.734686 20.232840 8.427853 21.265453 -3.415611 11.236528 -1.888869 39.607235 -0.000000 -0.000000 -27.360001 0.000000 0.000000 -19.000000 0.000000 0.000000 -0.000000 15.636942 -0.000000 -9.585802 10.945860 -0.000000 -0.000000 10.945860 0.000000 0.000000 -0.000000 -0.000000 0.000000 14.304114 0.000000 -10.434988 10.012880 -0.000000 0.000000 10.012880 0.000000 -0.000000 0.000000 0.000000 0.000000 15.122699 -0.000000 -9.159403 10.585889 0.000000 0.000000 10.585889 0.000000 -0.000000 0.000000 0.000000 0.000000 15.216506 -0.000000 -9.532372 10.651554 -0.000000 0.000000 10.651554 -0.000000 0.000000 0.000000 0.000000 0.000000 -0.000000 0.000000 0.000000 -0.000000 0.000000 0.000000 -92.618034 0.514769 10.434116 -46.809433 29.967627 15.666817 -0.628863 -1.813119 40.586308 -10.184845 -21.865646 -10.678513 -15.136321 2.071817 37.965195 -0.000000 0.000000 -36.720001 -0.000000 -0.000000 -25.500000 0.000000 0.000000 -0.000000 -34.453308 -0.000000 -5.705714 -24.117317 0.000000 0.000000 -24.117317 -0.000000 -0.000000 0.000000 -0.000000 -0.000000 -30.281685 -0.000000 -7.667402 -21.197180 0.000000 0.000000 -21.197180 -0.000000 -0.000000 -0.000000 -0.000000 -0.000000 -25.016642 -0.000000 -8.782309 -17.511648 -0.000000 -0.000000 -17.511648 0.000000 -0.000000 0.000000 0.000000 0.000000 -18.330921 -0.000000 -10.306925 -12.831645 0.000000 -0.000000 -12.831645 -0.000000 0.000000 0.000000 0.000000 -0.000000 -0.000000 0.000000 0.000000 0.000000 -0.000000 0.000000 -13.388523 -6.663019 24.740456 -0.267368 -1.782891 8.494413 7.878542 -5.368635 14.736826 -1.718727 2.093856 -15.299640 -0.000000 -0.000000 -0.000000 -0.000000 -0.000000 -0.000000 -0.000000 0.000000 -0.000000 -2.864951 -2.088093 19.640900 0.037277 0.135028 15.438157 3.887063 5.200925 10.529841 0.081174 -0.523228 -18.219702 0.000000 -0.000000 -0.000000 0.000000 0.000000 -0.000000 -0.000000 0.000000 0.000000 
8.105886 87.358055 6.900721 1.287338 0.385535 -20.594536 0.590842 -0.095534 10.088734 0.556811 0.220530 0.654194 -4.937488 3.072081 16.487793 -5.031578 0.900415 7.602346 -15.948842 3.445025 11.790575 -1.613263 -0.789573 0.510614 -0.949036 -1.671727 -17.193491 0.000000 0.000000 0.000000 94.401093 -1.200074 15.666369 51.735508 -41.292149 23.578253 0.111834 11.713445 20.234409 8.394089 21.233181 -3.438046 11.236528 -1.888869 39.607235 0.000000 0.000000 -27.360001 -0.000000 0.000000 -19.000000 0.000000 -0.000000 -0.000000 15.670188 -0.000000 -9.562150 10.969131 -0.000000 0.000000 10.969131 0.000000 0.000000 -0.000000 0.000000 0.000000 14.336673 -0.000000 -10.409341 10.035670 -0.000000 0.000000 10.035670 0.000000 -0.000000 0.000000 -0.000000 0.000000 15.155216 0.000000 -9.133410 10.608651 0.000000 0.000000 10.608651 0.000000 -0.000000 -0.000000 -0.000000 -0.000000 15.246962 -0.000000 -9.506521 10.672873 -0.000000 -0.000000 10.672873 0.000000 -0.000000 0.000000 0.000000 0.000000 -0.000000 0.000000 0.000000 -0.000000 -0.000000 0.000000 -92.624519 0.514723 10.409534 -46.753033 30.022943 15.698204 -0.626389 -1.893049 40.610870 -10.104462 -21.835190 -10.724762 -15.136321 2.071817 37.965195 -0.000000 0.000000 -36.720001 0.000000 -0.000000 -25.500000 0.000000 0.000000 -0.000000 -34.741928 -0.000000 -5.640651 -24.319349 0.000000 -0.000000 -24.319349 0.000000 -0.000000 0.000000 -0.000000 0.000000 -30.517803 0.000000 -7.615396 -21.362461 -0.000000 0.000000 -21.362461 0.000000 -0.000000 -0.000000 0.000000 -0.000000 -25.149979 0.000000 -8.754586 -17.604984 0.000000 0.000000 -17.604984 -0.000000 0.000000 -0.000000 -0.000000 -0.000000 -18.359167 0.000000 -10.316836 -12.851418 -0.000000 0.000000 -12.851418 0.000000 -0.000000 0.000000 0.000000 0.000000 -0.000000 0.000000 0.000000 0.000000 -0.000000 0.000000 -13.420355 -6.596164 24.729530 -0.268450 -1.792810 8.446142 7.947792 -5.355080 14.813234 -1.721700 2.098093 -15.313619 -0.000000 -0.000000 -0.000000 -0.000000 -0.000000 0.000000 -0.000000 0.000000 -0.000000 -2.913694 -2.045916 19.646980 0.035502 0.128846 15.427208 3.930787 5.252284 10.532423 0.078668 -0.518412 -18.212896 0.000000 -0.000000 -0.000000 -0.000000 0.000000 -0.000000 -0.000000 0.000000 -0.000000 
8.177433 87.355118 6.885558 1.287871 0.323793 -20.598942 0.572019 -0.088816 10.089070 0.550948 0.223006 0.654143 -4.943048 3.079875 16.485264 -5.035173 0.904338 7.617409 -15.908705 3.555995 11.948851 -1.571697 -0.657351 0.577737 -0.949240 -1.665320 -17.235962 0.000000 0.000000 -0.000000 94.407166 -1.201098 15.659405 51.708900 -41.325397 23.615788 0.111304 11.765877 20.208200 8.391151 21.210915 -3.410866 11.236528 -1.888869 39.607235 0.000000 -0.000000 -27.360001 -0.000000 0.000000 -19.000000 0.000000 0.000000 -0.000000 15.669991 0.000000 -9.562503 10.968993 0.000000 -0.000000 10.968993 0.000000 0.000000 -0.000000 -0.000000 0.000000 14.334916 0.000000 -10.405815 10.034441 -0.000000 0.000000 10.034441 0.000000 -0.000000 -0.000000 -0.000000 0.000000 15.146570 0.000000 -9.130725 10.602599 0.000000 -0.000000 10.602599 0.000000 0.000000 -0.000000 0.000000 -0.000000 15.230847 0.000000 -9.504881 10.661593 0.000000 -0.000000 10.661593 -0.000000 -0.000000 -0.000000 0.000000 -0.000000 -0.000000 0.000000 0.000000 -0.000000 0.000000 0.000000 -92.629410 0.514341 10.384341 -46.729427 30.055210 15.715755 -0.624722 -1.968900 40.619225 -10.088959 -21.723846 -10.755249 -15.136321 2.071817 37.965195 -0.000000 -0.000000 -36.720001 0.000000 0.000000 -25.500000 -0.000000 -0.000000 -0.000000 -34.860817 0.000000 -5.556484 -24.402573 -0.000000 -0.000000 -24.402573 0.000000 0.000000 0.000000 0.000000 0.000000 -30.610434 0.000000 -7.548388 -21.427303 -0.000000 0.000000 -21.427303 0.000000 0.000000 -0.000000 0.000000 -0.000000 -25.192392 -0.000000 -8.722306 -17.634674 0.000000 -0.000000 -17.634674 -0.000000 0.000000 0.000000 -0.000000 -0.000000 -18.356377 -0.000000 -10.328276 -12.849463 -0.000000 0.000000 -12.849463 0.000000 0.000000 0.000000 -0.000000 -0.000000 -0.000000 0.000000 0.000000 0.000000 -0.000000 0.000000 -13.447404 -6.533502 24.673727 -0.269633 -1.798455 8.484784 7.984285 -5.341998 14.845043 -1.724577 2.102460 -15.323543 -0.000000 -0.000000 -0.000000 -0.000000 -0.000000 0.000000 -0.000000 -0.000000 0.000000 -2.969016 -2.022094 19.652933 0.033718 0.122037 15.417516 3.970737 5.324310 10.535992 0.076252 -0.513297 -18.201927 -0.000000 0.000000 -0.000000 0.000000 0.000000 -0.000000 -0.000000 0.000000 0.000000 
8.247107 87.354309 6.868859 1.288137 0.260603 -20.607431 0.556538 -0.083031 10.089573 0.541436 0.225309 0.654187 -4.949287 3.085862 16.481327 -5.037868 0.906987 7.642899 -15.870521 3.683794 12.103115 -1.519687 -0.501396 0.636909 -0.949985 -1.656430 -17.276146 -0.000000 0.000000 0.000000 94.417130 -1.203174 15.651742 51.675480 -41.326988 23.671062 0.110750 11.788976 20.183311 8.380289 21.192974 -3.389857 11.236528 -1.888869 39.607235 0.000000 0.000000 -27.360001 -0.000000 -0.000000 -19.000000 0.000000 0.000000 -0.000000 15.676965 -0.000000 -9.565166 10.973876 -0.000000 -0.000000 10.973876 0.000000 0.000000 0.000000 -0.000000 0.000000 14.339451 -0.000000 -10.404030 10.037616 0.000000 -0.000000 10.037616 0.000000 0.000000 -0.000000 -0.000000 0.000000 15.143200 -0.000000 -9.127516 10.600240 0.000000 -0.000000 10.600240 0.000000 -0.000000 -0.000000 -0.000000 -0.000000 15.218618 -0.000000 -9.500569 10.653033 -0.000000 0.000000 10.653033 0.000000 -0.000000 0.000000 0.000000 0.000000 -0.000000 0.000000 0.000000 -0.000000 -0.000000 0.000000 -92.634514 0.513959 10.358630 -46.691750 30.057503 15.740337 -0.623407 -2.012566 40.636257 -10.064240 -21.582794 -10.794678 -15.136321 2.071817 37.965195 -0.000000 0.000000 -36.720001 0.000000 -0.000000 -25.500000 -0.000000 0.000000 -0.000000 -34.959949 -0.000000 -5.469974 -24.471964 -0.000000 0.000000 -24.471964 0.000000 0.000000 0.000000 -0.000000 -0.000000 -30.691338 0.000000 -7.481085 -21.483936 0.000000 0.000000 -21.483936 -0.000000 0.000000 0.000000 0.000000 -0.000000 -25.240129 0.000000 -8.688190 -17.668091 -0.000000 -0.000000 -17.668091 -0.000000 -0.000000 0.000000 -0.000000 -0.000000 -18.371914 -0.000000 -10.331491 -12.860340 0.000000 -0.000000 -12.860340 -0.000000 0.000000 -0.000000 -0.000000 -0.000000 -0.000000 0.000000 0.000000 0.000000 -0.000000 0.000000 -13.472614 -6.470707 24.621540 -0.270927 -1.804084 8.518679 8.018742 -5.328591 14.886928 -1.726905 2.106524 -15.339595 -0.000000 -0.000000 -0.000000 -0.000000 -0.000000 0.000000 -0.000000 0.000000 -0.000000 -3.024680 -2.002749 19.662365 0.031993 0.115657 15.404409 4.008711 5.400865 10.539695 0.073881 -0.507836 -18.197617 0.000000 -0.000000 -0.000000 0.000000 0.000000 -0.000000 -0.000000 0.000000 0.000000 
8.314777 87.352921 6.852977 1.287856 0.195719 -20.612137 0.540549 -0.077139 10.090239 0.532310 0.227669 0.654278 -4.955628 3.088783 16.477947 -5.038981 0.908658 7.665912 -15.826567 3.834838 12.266127 -1.461753 -0.322135 0.698812 -0.952376 -1.646542 -17.320332 0.000000 0.000000 -0.000000 94.427315 -1.205090 15.641265 51.669689 -41.300301 23.698618 0.110173 11.787289 20.177294 8.350345 21.180317 -3.413878 11.236528 -1.888869 39.607235 0.000000 -0.000000 -27.360001 0.000000 0.000000 -19.000000 -0.000000 0.000000 -0.000000 15.696492 -0.000000 -9.537182 10.987545 -0.000000 -0.000000 10.987545 0.000000 -0.000000 -0.000000 -0.000000 0.000000 14.354880 -0.000000 -10.373304 10.048416 -0.000000 -0.000000 10.048416 -0.000000 0.000000 0.000000 0.000000 0.000000 15.147951 0.000000 -9.093464 10.603565 -0.000000 0.000000 10.603565 0.000000 -0.000000 -0.000000 -0.000000 -0.000000 15.212019 0.000000 -9.463947 10.648414 0.000000 -0.000000 10.648414 -0.000000 -0.000000 0.000000 -0.000000 0.000000 -0.000000 0.000000 0.000000 -0.000000 0.000000 0.000000 -92.639893 0.513574 10.332105 -46.664307 30.037693 15.760410 -0.622229 -2.014432 40.650032 -10.058197 -21.491196 -10.833344 -15.136321 2.071817 37.965195 -0.000000 0.000000 -36.720001 0.000000 -0.000000 -25.500000 -0.000000 0.000000 -0.000000 -35.067135 0.000000 -5.445746 -24.546995 -0.000000 0.000000 -24.546995 -0.000000 -0.000000 -0.000000 0.000000 -0.000000 -30.773897 0.000000 -7.466564 -21.541727 0.000000 0.000000 -21.541727 -0.000000 0.000000 0.000000 0.000000 -0.000000 -25.269880 -0.000000 -8.682508 -17.688915 0.000000 0.000000 -17.688915 0.000000 0.000000 0.000000 0.000000 -0.000000 -18.345480 0.000000 -10.331029 -12.841836 0.000000 0.000000 -12.841836 0.000000 -0.000000 0.000000 0.000000 -0.000000 -0.000000 0.000000 0.000000 0.000000 -0.000000 0.000000 -13.495667 -6.410895 24.566681 -0.272339 -1.810701 8.555629 8.051015 -5.311609 14.926864 -1.728624 2.109893 -15.355662 -0.000000 -0.000000 -0.000000 -0.000000 0.000000 -0.000000 -0.000000 0.000000 0.000000 -3.071170 -1.972623 19.667473 0.030286 0.109630 15.397493 4.047402 5.465682 10.542637 0.071743 -0.502630 -18.193241 -0.000000 -0.000000 -0.000000 -0.000000 0.000000 -0.000000 -0.000000 0.000000 0.000000 
